<svg xmlns="http://www.w3.org/2000/svg" width="18" height="19" fill="currentColor" viewBox="0 0 18 19"><path d="M1 .66a.833.833 0 0 0 0 1.667zm1.91.834.805-.218A.83.83 0 0 0 2.91.661zm3.105 11.463-.804.217c.108.401.495.661.907.61zm9.552-1.194.104.826a.83.83 0 0 0 .712-.658zM17 4.837l.816.17A.833.833 0 0 0 17 4.003zm-13.184 0-.804.218zM1 1.494v.833h1.91V.661H1zm5.015 11.463.103.826 9.553-1.194-.104-.826-.103-.827-9.552 1.194zm9.552-1.194.816.168 1.433-6.925L17 4.837l-.816-.169-1.433 6.926zM2.91 1.494l-.804.218.906 3.343.804-.218.804-.218-.905-3.343zm.906 3.343-.804.218 2.199 8.12.804-.218.804-.218-2.199-8.12zm13.184 0v-.833H3.816V5.67H17zM9 16.083h-.833c0 .23-.187.417-.417.417v1.667c1.15 0 2.083-.933 2.083-2.084zm-1.25 1.25V16.5a.417.417 0 0 1-.417-.417H5.667c0 1.15.932 2.084 2.083 2.084zm-1.25-1.25h.833c0-.23.187-.416.417-.416V14c-1.15 0-2.083.933-2.083 2.083zm1.25-1.25v.834c.23 0 .417.186.417.416h1.666c0-1.15-.932-2.083-2.083-2.083zm7.917 1.25h-.834c0 .23-.186.417-.416.417v1.667c1.15 0 2.083-.933 2.083-2.084zm-1.25 1.25V16.5a.417.417 0 0 1-.417-.417h-1.667c0 1.15.933 2.084 2.084 2.084zm-1.25-1.25H14c0-.23.187-.416.417-.416V14c-1.15 0-2.084.933-2.084 2.083zm1.25-1.25v.834c.23 0 .416.186.416.416H16.5c0-1.15-.933-2.083-2.083-2.083z"/></svg>